<svg aria-hidden="true" style="position: absolute; width: 0; height: 0; overflow: hidden;" version="1.1" xmlns="http://www.w3.org/2000/svg" xmlns:xlink="http://www.w3.org/1999/xlink">
<defs>
<symbol id="icon-profile" viewBox="0 0 28 28">
<title>profile</title>
<path d="M14 0c7.734 0 14 6.266 14 14 0 7.688-6.234 14-14 14-7.75 0-14-6.297-14-14 0-7.734 6.266-14 14-14zM23.672 21.109c1.453-2 2.328-4.453 2.328-7.109 0-6.609-5.391-12-12-12s-12 5.391-12 12c0 2.656 0.875 5.109 2.328 7.109 0.562-2.797 1.922-5.109 4.781-5.109 1.266 1.234 2.984 2 4.891 2s3.625-0.766 4.891-2c2.859 0 4.219 2.312 4.781 5.109zM20 11c0-3.313-2.688-6-6-6s-6 2.688-6 6 2.688 6 6 6 6-2.688 6-6z"></path>
</symbol>
<symbol id="icon-search" viewBox="0 0 32 32">
<title>search</title>
<path d="M31.008 27.231l-7.58-6.447c-0.784-0.705-1.622-1.029-2.299-0.998 1.789-2.096 2.87-4.815 2.87-7.787 0-6.627-5.373-12-12-12s-12 5.373-12 12 5.373 12 12 12c2.972 0 5.691-1.081 7.787-2.87-0.031 0.677 0.293 1.515 0.998 2.299l6.447 7.58c1.104 1.226 2.907 1.33 4.007 0.23s0.997-2.903-0.23-4.007zM12 20c-4.418 0-8-3.582-8-8s3.582-8 8-8 8 3.582 8 8-3.582 8-8 8z"></path>
</symbol>
<symbol id="icon-heart" viewBox="0 0 32 32">
<title>heart</title>
<path d="M28.667 5.2v0c-1.6-1.6-3.733-2.533-6-2.533v0c-2.267 0-4.533 0.933-6.133 2.533 0 0 0 0 0 0l-0.533 0.533-0.533-0.533c-1.6-1.6-3.733-2.533-6.133-2.533-2.267 0-4.4 0.933-6 2.533s-2.667 3.867-2.667 6.133 0.933 4.533 2.533 6.133l11.733 11.733c0.267 0.267 0.533 0.4 0.933 0.4s0.667-0.133 0.933-0.4l11.733-11.733c3.6-3.333 3.6-8.933 0.133-12.267zM26.8 15.6l-10.8 10.8-10.8-10.8c-2.4-2.4-2.4-6.133 0-8.533 1.067-1.2 2.667-1.733 4.133-1.733 1.6 0 3.067 0.533 4.267 1.733l1.467 1.467c0.533 0.533 1.333 0.533 1.867 0l1.333-1.467c0 0 0 0 0 0 1.2-1.067 2.667-1.733 4.4-1.733 0 0 0 0 0 0 1.6 0 3.067 0.667 4.267 1.733v0c1.067 1.2 1.733 2.667 1.733 4.267s-0.667 3.067-1.867 4.267z"></path>
</symbol>
<symbol id="icon-telegram-logo" viewBox="0 0 32 32">
<title>telegram-logo</title>
<path d="M25.761 30.312c-0.25 0-0.498-0.074-0.711-0.218l-8.046-5.458-4.315 3.105c-0.338 0.243-0.775 0.305-1.168 0.164s-0.691-0.466-0.797-0.869l-2.167-8.212-7.742-2.96c-0.487-0.186-0.811-0.653-0.814-1.175s0.313-0.993 0.798-1.186l29.439-11.714c0.134-0.057 0.275-0.089 0.418-0.098 0.051-0.003 0.102-0.003 0.153-0 0.295 0.018 0.585 0.138 0.811 0.36 0.023 0.023 0.046 0.046 0.067 0.071 0.187 0.214 0.291 0.475 0.31 0.741 0.005 0.067 0.004 0.135-0.002 0.202-0.004 0.048-0.011 0.096-0.021 0.144l-4.969 26.073c-0.080 0.419-0.365 0.769-0.759 0.933-0.156 0.065-0.321 0.097-0.485 0.097zM17.71 22.053l7.167 4.861 3.867-20.288-13.965 13.438 2.897 1.966c0.012 0.007 0.023 0.015 0.034 0.023zM11.744 20.972l0.96 3.636 2.068-1.488-2.707-1.837c-0.126-0.085-0.234-0.191-0.32-0.312zM4.752 14.657l5.316 2.033c0.381 0.146 0.668 0.466 0.772 0.86l0.674 2.555c0.031-0.295 0.165-0.572 0.382-0.781l13.307-12.804-20.451 8.137z"></path>
</symbol>
<symbol id="icon-instagram-social-network-logo-of-photo-camera" viewBox="0 0 32 32">
<title>instagram-social-network-logo-of-photo-camera</title>
<path d="M4.107 0h23.785c2.259 0 4.107 1.672 4.107 4.107v23.786c0 2.435-1.848 4.107-4.107 4.107h-23.785c-2.26 0-4.107-1.672-4.107-4.107v-23.786c0-2.435 1.848-4.107 4.107-4.107v0zM23.311 3.555c-0.792 0-1.44 0.648-1.44 1.441v3.448c0 0.792 0.648 1.441 1.44 1.441h3.617c0.792 0 1.441-0.648 1.441-1.441v-3.448c0-0.793-0.648-1.441-1.441-1.441h-3.617zM28.383 13.533h-2.816c0.266 0.87 0.411 1.792 0.411 2.745 0 5.323-4.454 9.637-9.947 9.637s-9.946-4.315-9.946-9.637c0-0.954 0.144-1.875 0.411-2.745h-2.939v13.517c0 0.7 0.572 1.272 1.272 1.272h22.284c0.7 0 1.272-0.572 1.272-1.272v-13.517h-0.001zM16.030 9.703c-3.549 0-6.427 2.788-6.427 6.227s2.878 6.227 6.427 6.227c3.549 0 6.427-2.788 6.427-6.227s-2.878-6.227-6.427-6.227z"></path>
</symbol>
<symbol id="icon-email" viewBox="0 0 32 32">
<title>email</title>
<path d="M31.994 12.233c-0.003-0.037-0.011-0.073-0.022-0.108-0.007-0.031-0.017-0.062-0.030-0.092-0.015-0.029-0.033-0.056-0.053-0.082-0.021-0.030-0.044-0.058-0.071-0.083-0.009-0.007-0.012-0.018-0.021-0.025l-5.129-3.984v-4.129c0-0.884-0.716-1.6-1.6-1.6h-5.78l-2.314-1.797c-0.572-0.446-1.373-0.446-1.945 0l-2.315 1.797h-5.78c-0.884 0-1.6 0.716-1.6 1.6v4.129l-5.128 3.984c-0.009 0.008-0.013 0.018-0.021 0.025-0.027 0.025-0.050 0.053-0.071 0.083-0.021 0.025-0.038 0.053-0.053 0.082-0.013 0.030-0.023 0.060-0.030 0.092-0.011 0.035-0.018 0.070-0.022 0.107 0 0.011-0.006 0.021-0.006 0.032v18.136c0.001 0.339 0.111 0.669 0.313 0.941 0.003 0.005 0.004 0.011 0.007 0.015s0.012 0.009 0.017 0.015c0.3 0.394 0.766 0.627 1.261 0.629h28.801c0.497-0.002 0.965-0.235 1.265-0.631 0.004-0.005 0.011-0.007 0.014-0.012s0.004-0.010 0.008-0.015c0.203-0.272 0.312-0.602 0.313-0.941v-18.134c-0-0.011-0.006-0.021-0.006-0.032zM15.679 1.176c0.186-0.148 0.45-0.148 0.636 0l1.23 0.955h-3.093l1.227-0.955zM1.733 30.933l13.946-10.833c0.186-0.148 0.45-0.148 0.636 0l13.95 10.833h-28.533zM30.933 30.102l-13.961-10.843c-0.572-0.446-1.373-0.446-1.945 0l-13.962 10.843v-17.024l8.74 6.787c0.233 0.181 0.568 0.138 0.749-0.095s0.138-0.568-0.095-0.749l-8.879-6.895 3.752-2.916v4.121c0 0.295 0.239 0.533 0.533 0.533s0.533-0.239 0.533-0.533v-9.601c0-0.295 0.239-0.533 0.533-0.533h18.134c0.295 0 0.533 0.239 0.533 0.533v9.601c0 0.295 0.239 0.533 0.533 0.533s0.533-0.239 0.533-0.533v-4.121l3.752 2.916-8.895 6.907c-0.153 0.116-0.232 0.305-0.207 0.496s0.151 0.352 0.329 0.424c0.178 0.072 0.381 0.042 0.531-0.077l8.756-6.799v17.024z"></path>
<path d="M22.399 12.799v-2.133c0-3.535-2.866-6.4-6.4-6.4s-6.4 2.866-6.4 6.4 2.866 6.4 6.4 6.4c0.295 0 0.533-0.239 0.533-0.533s-0.239-0.533-0.533-0.533c-2.946 0-5.334-2.388-5.334-5.334s2.388-5.334 5.334-5.334 5.334 2.388 5.334 5.334v2.133c0 0.589-0.478 1.067-1.067 1.067s-1.067-0.478-1.067-1.067v-2.133c0-0.295-0.239-0.533-0.533-0.533s-0.533 0.239-0.533 0.533c0 1.178-0.955 2.133-2.133 2.133s-2.133-0.955-2.133-2.133 0.955-2.133 2.133-2.133c0.295 0 0.533-0.239 0.533-0.533s-0.239-0.533-0.533-0.533c-1.432-0.003-2.692 0.946-3.085 2.323s0.178 2.848 1.397 3.6c1.219 0.752 2.789 0.603 3.844-0.365 0.116 1.128 1.096 1.967 2.229 1.907s2.019-0.997 2.015-2.131z"></path>
</symbol>
<symbol id="icon-user" viewBox="0 0 32 32">
<title>user</title>
<path d="M16 0c-8.836 0-16 7.164-16 16s7.163 16 16 16 16-7.164 16-16c0-8.836-7.164-16-16-16zM16.048 23.548v-0h-6.932c0-4.998 4.39-4.997 5.364-6.304l0.111-0.596c-1.369-0.694-2.335-2.366-2.335-4.321 0-2.576 1.676-4.665 3.743-4.665s3.743 2.089 3.743 4.665c0 1.939-0.949 3.601-2.299 4.305l0.127 0.677c1.069 1.244 5.312 1.325 5.312 6.239h-6.834z"></path>
</symbol>
<symbol id="icon-instagram" viewBox="0 0 32 32">
<title>instagram</title>
<path d="M16 2.881c4.275 0 4.781 0.019 6.462 0.094 1.563 0.069 2.406 0.331 2.969 0.55 0.744 0.288 1.281 0.638 1.837 1.194 0.563 0.563 0.906 1.094 1.2 1.838 0.219 0.563 0.481 1.412 0.55 2.969 0.075 1.688 0.094 2.194 0.094 6.463s-0.019 4.781-0.094 6.463c-0.069 1.563-0.331 2.406-0.55 2.969-0.288 0.744-0.637 1.281-1.194 1.837-0.563 0.563-1.094 0.906-1.837 1.2-0.563 0.219-1.413 0.481-2.969 0.55-1.688 0.075-2.194 0.094-6.463 0.094s-4.781-0.019-6.463-0.094c-1.563-0.069-2.406-0.331-2.969-0.55-0.744-0.288-1.281-0.637-1.838-1.194-0.563-0.563-0.906-1.094-1.2-1.837-0.219-0.563-0.481-1.413-0.55-2.969-0.075-1.688-0.094-2.194-0.094-6.463s0.019-4.781 0.094-6.463c0.069-1.563 0.331-2.406 0.55-2.969 0.288-0.744 0.638-1.281 1.194-1.838 0.563-0.563 1.094-0.906 1.838-1.2 0.563-0.219 1.412-0.481 2.969-0.55 1.681-0.075 2.188-0.094 6.463-0.094zM16 0c-4.344 0-4.887 0.019-6.594 0.094-1.7 0.075-2.869 0.35-3.881 0.744-1.056 0.412-1.95 0.956-2.837 1.85-0.894 0.888-1.438 1.781-1.85 2.831-0.394 1.019-0.669 2.181-0.744 3.881-0.075 1.713-0.094 2.256-0.094 6.6s0.019 4.887 0.094 6.594c0.075 1.7 0.35 2.869 0.744 3.881 0.413 1.056 0.956 1.95 1.85 2.837 0.887 0.887 1.781 1.438 2.831 1.844 1.019 0.394 2.181 0.669 3.881 0.744 1.706 0.075 2.25 0.094 6.594 0.094s4.888-0.019 6.594-0.094c1.7-0.075 2.869-0.35 3.881-0.744 1.050-0.406 1.944-0.956 2.831-1.844s1.438-1.781 1.844-2.831c0.394-1.019 0.669-2.181 0.744-3.881 0.075-1.706 0.094-2.25 0.094-6.594s-0.019-4.887-0.094-6.594c-0.075-1.7-0.35-2.869-0.744-3.881-0.394-1.063-0.938-1.956-1.831-2.844-0.887-0.887-1.781-1.438-2.831-1.844-1.019-0.394-2.181-0.669-3.881-0.744-1.712-0.081-2.256-0.1-6.6-0.1v0z"></path>
<path d="M16 7.781c-4.537 0-8.219 3.681-8.219 8.219s3.681 8.219 8.219 8.219 8.219-3.681 8.219-8.219c0-4.537-3.681-8.219-8.219-8.219zM16 21.331c-2.944 0-5.331-2.387-5.331-5.331s2.387-5.331 5.331-5.331c2.944 0 5.331 2.387 5.331 5.331s-2.387 5.331-5.331 5.331z"></path>
<path d="M26.462 7.456c0 1.060-0.859 1.919-1.919 1.919s-1.919-0.859-1.919-1.919c0-1.060 0.859-1.919 1.919-1.919s1.919 0.859 1.919 1.919z"></path>
</symbol>

<symbol id="icon-facebook2" viewBox="0 0 32 32">
<title>facebook2</title>
<path d="M19 6h5v-6h-5c-3.86 0-7 3.14-7 7v3h-4v6h4v16h6v-16h5l1-6h-6v-3c0-0.542 0.458-1 1-1z"></path>
</symbol>
<symbol id="icon-twitter2" viewBox="0 0 32 32">
<title>twitter2</title>
<path d="M32 7.075c-1.175 0.525-2.444 0.875-3.769 1.031 1.356-0.813 2.394-2.1 2.887-3.631-1.269 0.75-2.675 1.3-4.169 1.594-1.2-1.275-2.906-2.069-4.794-2.069-3.625 0-6.563 2.938-6.563 6.563 0 0.512 0.056 1.012 0.169 1.494-5.456-0.275-10.294-2.888-13.531-6.862-0.563 0.969-0.887 2.1-0.887 3.3 0 2.275 1.156 4.287 2.919 5.463-1.075-0.031-2.087-0.331-2.975-0.819 0 0.025 0 0.056 0 0.081 0 3.181 2.263 5.838 5.269 6.437-0.55 0.15-1.131 0.231-1.731 0.231-0.425 0-0.831-0.044-1.237-0.119 0.838 2.606 3.263 4.506 6.131 4.563-2.25 1.762-5.075 2.813-8.156 2.813-0.531 0-1.050-0.031-1.569-0.094 2.913 1.869 6.362 2.95 10.069 2.95 12.075 0 18.681-10.006 18.681-18.681 0-0.287-0.006-0.569-0.019-0.85 1.281-0.919 2.394-2.075 3.275-3.394z"></path>
</symbol>
<symbol id="icon-linkedin2" viewBox="0 0 32 32">
<title>linkedin2</title>
<path d="M12 12h5.535v2.837h0.079c0.77-1.381 2.655-2.837 5.464-2.837 5.842 0 6.922 3.637 6.922 8.367v9.633h-5.769v-8.54c0-2.037-0.042-4.657-3.001-4.657-3.005 0-3.463 2.218-3.463 4.509v8.688h-5.767v-18z"></path>
<path d="M2 12h6v18h-6v-18z"></path>
<path d="M8 7c0 1.657-1.343 3-3 3s-3-1.343-3-3c0-1.657 1.343-3 3-3s3 1.343 3 3z"></path>
</symbol>
<symbol id="icon-star-empty" viewBox="0 0 32 32">
<title>star-empty</title>
<path d="M32 12.408l-11.056-1.607-4.944-10.018-4.944 10.018-11.056 1.607 8 7.798-1.889 11.011 9.889-5.199 9.889 5.199-1.889-11.011 8-7.798zM16 23.547l-6.983 3.671 1.334-7.776-5.65-5.507 7.808-1.134 3.492-7.075 3.492 7.075 7.807 1.134-5.65 5.507 1.334 7.776-6.983-3.671z"></path>
</symbol>
<symbol id="icon-backward2" viewBox="0 0 32 32">
<title>backward2</title>
<path d="M18 5v10l10-10v22l-10-10v10l-11-11z"></path>
</symbol>
<symbol id="icon-forward3" viewBox="0 0 32 32">
<title>forward3</title>
<path d="M16 27v-10l-10 10v-22l10 10v-10l11 11z"></path>
</symbol>
<symbol id="icon-compass" viewBox="-12 -15 57 57">
<title>compass</title>
<path d="M17 32c-0.072 0-0.144-0.008-0.217-0.024-0.458-0.102-0.783-0.507-0.783-0.976v-15h-15c-0.469 0-0.875-0.326-0.976-0.783s0.129-0.925 0.553-1.123l30-14c0.381-0.178 0.833-0.098 1.13 0.199s0.377 0.749 0.199 1.13l-14 30c-0.167 0.358-0.524 0.577-0.906 0.577zM5.508 14h11.492c0.552 0 1 0.448 1 1v11.492l10.931-23.423-23.423 10.931z"></path>
</symbol>
</defs>
</svg>
